<?xml version="1.0" encoding="utf-8"?>
<!-- Generator: Adobe Illustrator 18.0.0, SVG Export Plug-In . SVG Version: 6.00 Build 0)  -->
<!DOCTYPE svg PUBLIC "-//W3C//DTD SVG 1.1//EN" "http://www.w3.org/Graphics/SVG/1.1/DTD/svg11.dtd">
<svg version="1.1" id="Layer_1" xmlns="http://www.w3.org/2000/svg" xmlns:xlink="http://www.w3.org/1999/xlink" x="0px" y="0px"
	 viewBox="0 0 620 300" enable-background="new 0 0 620 300" xml:space="preserve">
<polygon fill="#D62633" points="179.4,234.3 179.4,120.7 573.4,120.7 503.4,234.3 "/>
<path fill="#FFFFFF" d="M184.3,125.6h380.3l-64,103.8H184.3V125.6z M564.7,115.8H184.3h-9.8v9.8v103.8v9.8h9.8h316.3h5.5l2.9-4.7
	l64-103.8l9.2-14.9H564.7z"/>
<g>
	<path fill="#FFFFFF" d="M349.6,173v-12c0-4.9-1.3-6.9-4.6-6.9c-3.2,0-5,1.8-5,7V173h-5.6v-31.4h5.6v9.5c1.7-1.5,3.6-2.2,6-2.2
		c5.6,0,9.2,3.1,9.2,10.8V173H349.6z"/>
	<path fill="#FFFFFF" d="M365.5,160V173h-5.6v-23.5h5.2v2.3c1.5-2.2,2.7-2.8,5.1-2.8h0.4v5.4C367.2,154.5,365.5,156.3,365.5,160z"/>
</g>
<g>
	<path fill="#FFFFFF" d="M398,173V170c-2.2,2.5-4.5,3.6-7.8,3.6c-6.9,0-11.8-5.1-11.8-12.2c0-7.2,5-12.4,12-12.4
		c3.4,0,5.7,1.1,7.7,3.7v-3.1h5.2V173H398z M390.9,154.1c-4,0-6.9,3.1-6.9,7.3c0,4.1,2.8,6.9,7,6.9c4.3,0,6.8-3.1,6.8-7
		C397.9,157.2,395,154.1,390.9,154.1z M389.3,147.4l-2.2-3.3l9.5-5.7l2.3,3.9L389.3,147.4z"/>
	<path fill="#FFFFFF" d="M413.9,154.7V173h-5.6v-18.4h-2.8v-5.1h2.8v-7.9h5.6v7.9h3.4v5.1H413.9z"/>
	<path fill="#FFFFFF" d="M433.8,173l-8-11v11h-5.6v-31.4h5.6v18.9l7.5-11.1h6.7l-8.4,11.5l9.8,12H433.8z"/>
	<path fill="#FFFFFF" d="M453,180.9h-6.1l4.4-10.1l-8.6-21.3h6.5l5.2,15.2l5.7-15.2h6.5L453,180.9z"/>
</g>
<g>
	<path fill="#FFFFFF" d="M334.1,212.7c-4.3,0-7.4-2.3-8-7.4h5.2c0.5,1.8,1.4,2.6,2.9,2.6c1.3,0,2.4-0.9,2.4-2.1
		c0-1.3-0.2-1.6-3.7-2.8c-4.3-1.4-6-3.3-6-6.4c0-3.7,3.2-6.6,7.2-6.6c3.7,0,6.9,2.4,7.1,6.5h-5.1c-0.2-1.1-0.9-1.7-2-1.7
		c-1.1,0-2,0.8-2,1.8c0,1.1,0.1,1.2,3.7,2.4c4.5,1.4,6,3.1,6,6.3C341.8,209.5,338.4,212.7,334.1,212.7z"/>
	<path fill="#FFFFFF" d="M363.8,188.3c-2,0-2.7,0.7-2.7,2.6h2.9v4.3h-2.9v17h-5.2v-17H354v-4.3h1.9c0.6-5.7,3.4-7.6,7.2-7.6
		c0.4,0,0.7,0,1.3,0.1v4.9H363.8z"/>
	<path fill="#FFFFFF" d="M374.3,219.5h-5.6l4.1-9.3l-8-19.7h6l4.8,14.1l5.2-14.1h6L374.3,219.5z"/>
	<path fill="#FFFFFF" d="M388,212.2v-4.7l9.6-12.4h-8.5v-4.7h14.7v4.7l-9.6,12.4h10.3v4.7H388z"/>
	<path fill="#FFFFFF" d="M407.4,212.2v-21.7h5.2v21.7H407.4z M407.4,187.4v-5.2h5.2v5.2H407.4z"/>
	<path fill="#FFFFFF" d="M429.4,212.2l-7.4-10.1v10.1h-5.2v-28.9h5.2v17.5l6.9-10.2h6.2l-7.8,10.6l9,11.1H429.4z"/>
</g>
<g>
	<path fill="#FFFFFF" d="M448.1,212.7c-6.3,0-11.5-5.1-11.5-11.4c0-6.2,5.2-11.4,11.5-11.4c6.5,0,11.6,5.1,11.6,11.5
		C459.7,207.6,454.4,212.7,448.1,212.7z M448.1,194.8c-3.4,0-6.3,2.9-6.3,6.5c0,3.7,2.8,6.7,6.3,6.7c3.4,0,6.3-2.9,6.3-6.6
		C454.4,197.8,451.6,194.8,448.1,194.8z"/>
	<path fill="#FFFFFF" d="M477.1,212.2v-2.1c-2,1.9-3.6,2.6-6.2,2.6c-5.1,0-8.3-2.9-8.3-10.6v-11.6h5.2v10.6c0,5.8,1.6,6.8,4.1,6.8
		c1.8,0,3.2-0.7,4-2c0.6-1,0.8-2.3,0.8-5.2v-10.2h5.2v21.7H477.1z"/>
</g>
<g>
	<defs>
		<rect id="SVGID_1_" x="35.5" y="30.4" width="546.7" height="239.9"/>
	</defs>
	<clipPath id="SVGID_2_">
		<use xlink:href="#SVGID_1_"  overflow="visible"/>
	</clipPath>
	<path clip-path="url(#SVGID_2_)" fill="#999999" d="M155.5,265.4c-63.5,0-115.1-51.6-115.1-115.1c0-63.5,51.6-115.1,115.1-115.1
		s115.1,51.6,115.1,115.1C270.6,213.8,219,265.4,155.5,265.4"/>
	<path clip-path="url(#SVGID_2_)" fill="#FFFFFF" d="M155.5,30.4c-66.3,0-120,53.7-120,120s53.7,120,120,120s120-53.7,120-120
		S221.8,30.4,155.5,30.4 M155.5,40.2c29.4,0,57.1,11.5,77.9,32.3c20.8,20.8,32.3,48.5,32.3,77.9s-11.5,57.1-32.3,77.9
		c-20.8,20.8-48.5,32.3-77.9,32.3s-57.1-11.5-77.9-32.3c-20.8-20.8-32.3-48.5-32.3-77.9s11.5-57.1,32.3-77.9
		C98.4,51.6,126.1,40.2,155.5,40.2"/>
	<path clip-path="url(#SVGID_2_)" fill="#666666" d="M113.9,204.5c-3.4,2.1,46,52.9,48.8,55.8c68.9-7.8,94-66.6,94-66.6
		s-41.8-53.4-56.7-69C208.6,245.3,125.5,208,113.9,204.5"/>
	<path clip-path="url(#SVGID_2_)" fill="#D62633" d="M115.8,190.7c0-0.8-0.4-1.2-0.8-1.6c-0.2-0.2-0.4,0-0.5,0.1
		c-0.2,0.1-0.2,0.3,0,0.5c0.5,0.5,0.6,1-0.1,1.4c-0.2,0.1-0.2,0.3,0,0.5c0.1,0.2,0.2,0.4,0.5,0.3
		C115.3,191.6,115.8,191.2,115.8,190.7 M111.3,189.5c0,0.6,0.4,1,0.8,1.5c0.2,0.2,0.3,0,0.5-0.1c0.2-0.1,0.3-0.3,0.1-0.5
		c-0.5-0.5-0.6-1,0.1-1.4c0.2-0.2,0.2-0.4,0-0.5c-0.1-0.1-0.2-0.4-0.4-0.2C111.8,188.5,111.3,188.8,111.3,189.5 M187.6,171.6
		c-0.2-0.3-0.5-0.6-0.7-0.8c-0.2-0.3-0.2-0.6,0-0.8c0.3-0.3,0.5,0,0.7,0.2c0.2,0.2,0.4,0.4,0.6,0.6c0.2,0.2,0.5,0.2,0.4-0.1
		c-0.2-0.7,0.2-0.5,0.6-0.5c0.5-0.1,1.2-0.9,1-1.1c-0.3-0.4-0.6-0.7-0.9-1c-0.4-0.3-0.8-0.3-1.1,0.1c-0.3,0.3-0.5,0.6,0.1,0.9
		c0.2,0.1,0.2,0.4,0,0.5c-0.2,0.2-0.4,0.1-0.5-0.1c-0.3-0.3-0.7-0.5-0.8-0.9c-0.1-0.1-0.2-0.2-0.3-0.1c-0.1,0.1-0.2,0.2-0.1,0.3
		c0.8,0.7-0.1,0.9-0.4,1.2c-0.1,0.2-0.4,0.2-0.2,0.5c0.4,0.4,0.8,0.9,1.2,1.3c0.1,0.1,0.2,0.2,0.3,0.1
		C187.5,171.8,187.5,171.7,187.6,171.6 M116.5,185.2c-0.8,0.1-1.4,0.4-1.7,1.1c-0.3,0.6-0.1,1.2,0.3,1.7c0.2,0.3,0.5,0.6,0.7,0.9
		c0.4,0.6,0.9,1,1.6,0.8c0.8-0.2,1.3-0.7,1.5-1.5c0.1-0.3,0.2-0.7-0.2-0.8c-0.3-0.1-0.6,0.1-0.6,0.6c0,0.4-0.4,0.7-0.8,0.8
		c-0.4,0.1-0.7-0.1-0.9-0.4c-0.2-0.3-0.4-0.5-0.6-0.8c-0.5-0.8-0.2-1.5,0.8-1.5c0.5,0,0.7-0.2,0.7-0.5
		C117.2,185.2,116.7,185.3,116.5,185.2 M119.8,182.2c-0.5,0.2-0.8,0.6-0.7,1.1c0,0.3,0,0.7,0,1c0,0.2,0,0.3-0.1,0.4
		c-0.2,0.1-0.3-0.1-0.4-0.2c-0.5-0.6-0.9-1.1-1.4-1.7c-0.2-0.2-0.3-0.5-0.6-0.2c-0.3,0.2-0.3,0.4,0,0.7c1.1,1.3,2.2,2.7,3.3,4
		c0.2,0.3,0.4,0.3,0.6,0.1c0.3-0.2,0.2-0.4,0-0.7c-0.2-0.3-0.7-0.6-0.5-1c0.3-0.5,0.8-0.1,1.1,0c0.1,0,0.3,0,0.4,0.1
		c0.6,0.2,1,0,1.3-0.5c-0.7-0.1-1.4-0.3-2-0.4c-0.7-0.1-1-0.4-0.9-1.1C119.8,183.3,119.8,182.8,119.8,182.2 M183.1,174.6
		c0.1,0.1,0.3,0.1,0.4,0.2c0.2,0.1,0.4,0.3,0.6,0.1c0.2-0.2,0-0.4,0-0.6c-0.1-0.3-0.2-0.5-0.3-0.8c0.1,0,0.2,0,0.3,0
		c0.1,0.1,0.2,0.3,0.4,0.4c0.1,0.1,0.2,0.3,0.5,0.2c0.2-0.1,0-0.3,0-0.5c-0.1-0.5,0.3-0.3,0.5-0.3c0.7,0,0.8-0.6,1.3-0.9
		c0.1-0.1-0.3-0.5-0.5-0.8c-0.1-0.1-0.2-0.2-0.3-0.3c-0.5-0.4-1.2-0.3-1.4,0.4c-0.2,0.5,0,0.6,0.5,0.4c0,0,0.1,0.1,0.1,0.1
		c0,0.2,0,0.4,0,0.6c0,0.2,0.2,0.4,0,0.5c-0.2,0.1-0.4-0.1-0.5-0.2c-0.3-0.3-0.5-0.6-0.8-0.9c-0.2-0.2-0.3-0.5-0.6-0.3
		c-0.3,0.2-0.2,0.4-0.1,0.7c0.2,0.4,0.4,0.8,0.5,1.2c-0.1,0.1-0.1,0.1-0.2,0.2c-0.5-0.1-0.8-0.5-1.2-0.7c-0.2-0.1-0.4-0.2-0.6,0
		c-0.2,0.2-0.1,0.4,0.1,0.5c0.4,0.4,0.7,0.9,1.1,1.3c0.2,0.2,0.4,0.8,0.8,0.5c0.3-0.2-0.3-0.4-0.3-0.8
		C183,174.8,183.1,174.7,183.1,174.6 M111.4,154.5c0.2-2.1,0.3-4.2,0.4-6.2 M112.1,144.2c0-0.4,0.1-0.7,0.1-1.1
		c0.2-1.1,0.2-1.1,1.4-1.1c1.2,0,2.4,0,3.6,0c5.6,0,11.2,0,16.7,0c0,0.4,0,0.9-0.1,1.3c-0.4,2.4-0.3,4.9-0.6,7.3
		c-0.2,1.7-0.2,3.5-0.4,5.2c-0.4,3.2-0.4,6.3-0.7,9.5c-0.2,2-0.3,3.9-0.4,5.9c0,0.4-0.3,0.5-0.6,0.6c0.3,0.1,0.6,0.1,0.8,0.2
		c0.4,0.2,0.4,0.5,0.1,0.7c-0.5,0.2-0.4,0.5-0.4,0.9c0,0.5,0.1,1-0.3,1.5c-0.1,0.2-0.1,0.5,0.1,0.7c0.2,0.3,0.2,0.5,0.2,0.8
		c-0.2,1.5-0.3,3.1-0.4,4.7c-0.2,3-0.2,6,0.5,9c0.4,1.7,0.9,3.3,1.7,4.8c1.5,3.2,3.6,5.9,6.4,8.2c2.6,2.2,5.6,3.7,8.9,4.6
		c2.5,0.7,5.1,0.9,7.7,0.7c0,0,0.1,0,0.1,0c0.1,0,0.2,0,0.3,0c3.4-0.1,6.6-1,9.6-2.6c4.2-2.1,7.4-5.2,9.8-9.3c1.8-3.1,2.9-6.4,3-10
		c0.1-2.2,0.1-4.4-0.1-6.6c0.2-0.4-0.3-1,0.2-1.3c0.4-0.2,0.3-0.3,0.1-0.5c-0.2-0.3-0.6-0.6-0.3-0.9c0.3-0.4,0.6,0.1,0.9,0.2
		c0,0,0.1,0,0.1,0.1c0.2,0.1,0.4,0.2,0.6,0c0.2-0.3,0-0.4-0.1-0.6c-0.1-0.2-0.6-0.4-0.3-0.8c0.3-0.1,0.4,0.2,0.5,0.3
		c0.4,0.4,0.8,0.1,1.1-0.1c0.3-0.2,0.5-0.5,0.2-0.9c-0.1,0.1-0.1,0.1-0.2,0.1c-0.1,0.3-0.2,0.6-0.6,0.6c-0.1,0-0.3-0.1-0.3-0.2
		c-0.1-0.4,0.3-0.5,0.5-0.6c0.4-0.3,0.2-0.6-0.1-0.8c-0.3-0.2-0.7-0.2-1,0.1c-0.3,0.3-0.4,0.6-0.3,1c0.1,0.2,0.3,0.3,0.1,0.5
		c-0.4,0.3-0.4-0.1-0.6-0.3c-0.4-0.3-0.5-0.9-1.1-1c-0.2-4.2-0.5-8.4-0.9-12.5c-0.3-3.8-0.6-7.6-1-11.4c-0.3-3.1-0.5-6.1-0.8-9.2
		c7.2,0,14.4,0,21.6,0c0.4,2.2,0.2,4.4,0.6,6.5c0.3,1.2,0,2.5,0.2,3.7c0.5,3.1,0.6,6.2,0.9,9.3c0.1,0.9,0.2,1.9,0.2,2.8
		c0.2,3.2,0.6,6.4,0.7,9.6c0.1,2.2,0.3,4.5,0.4,6.7c0.2,4,0.2,8-0.5,11.9c-0.2,1.3-0.5,2.5-0.8,3.7c-0.4,1.4-0.8,2.8-1.3,4.2
		c-0.5,1.6-1.2,3.1-1.9,4.5c-0.9,0.8,0.8,0.9,0,0c-0.2-0.2-0.4,1.4-0.7,1.7c-0.3,0.3-0.5-0.2-0.3,0c-0.8,1.3,1.1-1.8-0.1,0.3
		c-0.2,0.2-0.3,0.5-0.6,0.6c-0.2,1.6-0.9,2.3-1.5,2.6c-1.3,0.7-1.1-1.2,0-0.2c-0.1,0.3-0.3,0.6-0.5,1c-0.7,1.1-1.7,2.1-2.5,3.2
		c-1.8,2.2-3.8,4.3-6.2,5.9c-0.9,0.6-1,0.6-1.1-0.5c0,0-0.1,0-0.1-0.1c0,0.2,0,0.3,0,0.4c0.6,1.2-0.3,1.5-1,2
		c-0.3,0.2-0.6,0.4-0.9,0.6c-1.9,1.4-4,2.4-6,3.4c-1.7,0.8-3.5,1.4-5.3,2.1c-1.4,0.5-2.9,0.9-4.4,1.2c-1.7,0.3-3.4,0.9-5.1,0.7
		c-0.2,0-0.4,0-0.5,0.3c-5.3,0.2-10.6-0.1-15.7-1.4c-3.7-1-7.3-2.5-10.7-4.4c-0.4-0.2-0.8-0.5-1.3-0.8c0.7-0.2,1.3-0.2,2,0
		c1.3,0.2,1.6,0,1.6-1.3c0-1.3,0-2.7,0-4c0-1.1,0-1.2-1.2-1.2c-0.4,0-0.7,0-1.1,0c-1-0.1-2.1-0.1-3.1-0.2c-0.7-0.1-0.9,0.2-0.9,0.8
		c0,1,0,2.1,0,3.1c0,0.4,0,0.7-0.5,0.7c-2.1-1.3-3.9-3-5.6-4.7c-3.7-3.7-6.6-7.8-8.8-12.5c-1.6-3.4-2.9-7-3.5-10.8
		c0-0.2-0.1-0.3-0.2-0.5"/>
	<path clip-path="url(#SVGID_2_)" fill="#FCFCFC" d="M175.9,141.1c-0.4-4.7-0.9-9.4-1.3-14.2c-0.1-0.6-0.1-1.3-0.1-2
		c7,0,14,0,21.1,0c0.6,0,0.6,0.3,0.6,0.8c0.2,1.8,0.4,3.7,0.5,5.5c0.3,3.3,0.7,6.5,0.9,9.8c0.1,0.7-0.2,0.9-0.8,0.8
		c-6.4,0-12.9,0-19.3,0C176.7,141.8,176.1,141.8,175.9,141.1"/>
	<path clip-path="url(#SVGID_2_)" fill="#FCFCFC" d="M113.5,126.1c0-0.4,0.1-0.7,0.1-1.1c7,0,14,0,21,0c0.5,0,0.6,0.3,0.6,0.7
		c-0.1,1.3-0.1,2.7-0.2,4c-0.4,3.8-0.7,7.6-0.9,11.4c0,0.6-0.2,0.8-0.9,0.8c-6.7,0-13.4,0-20,0c-0.3,0-0.6,0.1-0.8-0.2
		c0.3-4.4,0.7-8.8,1-13.2c0-0.2,0-0.5,0-0.7C113.7,127.2,113.6,126.6,113.5,126.1"/>
	<path clip-path="url(#SVGID_2_)" fill="#B02938" d="M156.3,208.7c-2.6,0.2-5.1-0.1-7.7-0.7c-3.3-0.9-6.3-2.5-8.9-4.6
		c-2.7-2.2-4.8-5-6.4-8.2c-0.7-1.6-1.3-3.2-1.7-4.8c-0.7-3-0.7-6-0.5-9c0.1-1.6,0.2-3.1,0.4-4.7c0-0.3,0-0.6-0.2-0.8
		c-0.1-0.2-0.2-0.5-0.1-0.7c0.3-0.5,0.2-1,0.3-1.5c0-0.4,0-0.7,0.4-0.9c0.3-0.2,0.3-0.5-0.1-0.7c-0.2-0.1-0.5-0.2-0.8-0.2
		c0.4-0.1,0.6-0.1,0.6-0.6c0.1-2,0.2-4,0.4-5.9c0.3-3.2,0.3-6.3,0.7-9.5c0.2-1.7,0.2-3.5,0.4-5.2c0.3-2.4,0.2-4.9,0.6-7.3
		c0.1-0.4,0-0.9,0.1-1.3c1.5,0,3.1,0,4.6,0c-0.4,5.1-0.8,10.1-1.2,15.2c-0.3,3.9-0.5,7.8-0.7,11.6c-0.3,5.3-0.7,10.6-0.8,16
		c-0.1,6.2,2,11.6,6.1,16.2c3.4,3.7,7.5,6.1,12.4,7.3C155,208.4,155.7,208.4,156.3,208.7"/>
	<path clip-path="url(#SVGID_2_)" fill="#B02938" d="M196.1,205.1c0.8-1.5,1.4-3,1.9-4.5c0.5-1.4,0.9-2.8,1.3-4.2
		c0.3-1.2,0.6-2.5,0.8-3.7c0.6-3.9,0.7-7.9,0.5-11.9c-0.1-2.2-0.3-4.5-0.4-6.7c-0.1-3.2-0.5-6.4-0.7-9.6c-0.1-0.9-0.2-1.9-0.2-2.8
		c-0.2-3.1-0.4-6.2-0.9-9.3c-0.2-1.2,0-2.5-0.2-3.7c-0.4-2.1-0.2-4.4-0.6-6.5c1.5,0,3.1,0,4.6,0c0.3,3.1,0.6,6.2,0.8,9.3
		c0.3,2.8,0.5,5.7,0.7,8.5c0.3,3.4,0.4,6.7,0.7,10.1c0.3,3.6,0.5,7.3,0.7,10.9c0.2,2.8,0.2,5.5,0,8.3c-0.3,2.9-0.7,5.8-1.6,8.7
		c-0.1,0.2-0.1,0.5-0.1,0.7c-0.2-0.2-0.4-0.3-0.7-0.5c-0.3,0.4-0.4,0.8,0,1.3c0.2,0.2,0.2,0.4,0.1,0.6c-0.5,0.8-1,0.9-1.6,0.2
		c-0.1-0.1-0.2-0.3-0.4-0.3c-0.2,0.3-0.4,0.6-0.1,1c0.5,0.5,0.2,1.6,1.3,1.7c0,0,0.1,0.2,0.1,0.3c-0.2,0.2-0.4,0.5-0.4,0.8
		c-0.4-0.1-0.5-0.5-0.8-0.8c-0.2-0.2-0.3-0.7-0.8-0.4c-0.5,0.4,0,0.6,0.2,0.9c0.3,0.5,0.8,0.8,1,1.4c-0.4,0.4-0.5,0.9-0.8,1.4
		c-0.7-0.5-1.2-1.3-1.7-2c-0.2-0.3-0.4-0.3-0.7-0.1c-0.3,0.3-0.1,0.4,0.1,0.6c0.6,0.8,1.2,1.6,1.9,2.4c-0.1,0.2-0.1,0.3-0.2,0.5
		c-0.6-0.3-0.9-0.9-1.3-1.4C197.8,205.2,197.1,204.8,196.1,205.1"/>
	<path clip-path="url(#SVGID_2_)" fill="#FCFCFC" d="M157,99.9c0.3-2.3,0.6-4.5,0.8-6.8c0.2-2,0.6-3.9,0.7-5.9
		c0.1-0.1,0.1-0.2,0-0.3c-0.2-0.1-0.2,0.1-0.2,0.2c-1.2,0.9-2.2,2-3.3,3.1c-0.7,0.7-1.4,1.5-2.1,2.1c-0.2-1.5,0-2.8,0.1-4.2
		c0.2-2.4,0.4-4.8,0.7-7.2c0.3-3.1,0.6-6.2,0.9-9.3c0.1-1.3,0.2-2.7,0.3-4c0.1-0.9,0.3-1.7,1.1-2.4c2.2-2,4.2-4.1,6.4-6.2
		c0.1-0.1,0.3-0.2,0.4-0.3c0,1.2-0.4,2.3-0.6,3.3c-0.7,3.2-1.4,6.5-2.2,9.7c-0.7,3-1.3,5.9-2,8.9c-0.1,0.3-0.2,0.6,0,0.8
		c0.3,0.2,0.4-0.2,0.7-0.3c2.5-1.7,5-3.4,7.5-5.1c0.2-0.1,0.3-0.3,0.7-0.3c-0.4,1.2-0.7,2.3-1.1,3.5c-1.4,4.3-2.8,8.7-4.1,13
		c-0.9,2.7-1.7,5.4-2.6,8.1c-0.1,0.2-0.1,0.4-0.2,0.7c-0.2,0.1-0.3,0.2-0.2,0.4c0,0.1-0.1,0.2-0.1,0.3c-0.6,0-1.2,0.1-1.8,0
		c0-0.2,0-0.5,0-0.7C157.1,100.6,157,100.2,157,99.9"/>
	<path clip-path="url(#SVGID_2_)" fill="#FCFCFC" d="M137.8,117.6c-4.1-4.1-8.2-8.2-12.3-12.3c-0.1-0.1-0.2-0.1-0.4-0.3
		c0.2,2.1,0.5,4.1,0.7,6.2c-1-0.7-1.8-1.5-2.6-2.3c-4-3.7-8.1-7.4-12.1-11.1c-0.3-0.3-0.5-0.5-0.6-1c-0.3-2.5-0.6-4.9-0.9-7.4
		c0-0.1-0.1-0.3,0.1-0.5c0.9,1,1.7,2,2.6,3.1c2.9,3.4,5.7,6.8,8.6,10.2c0.1,0.1,0.3,0.3,0.4,0.4c0.2,0.3,0.4,0.1,0.4-0.1
		c0-0.2,0.1-0.5,0.1-0.7c0.1-2.2,0.2-4.5,0.4-6.7c0-0.1,0-0.3,0.1-0.6c5.1,7.3,10.1,14.6,15.1,21.8c0,0.2,0.1,0.3,0.2,0.4
		c0.1,0.1,0.2,0.2,0.2,0.3c0,0.2,0.1,0.3,0.2,0.3c0.1,0.1,0.1,0.2,0.2,0.2C138,117.5,137.9,117.5,137.8,117.6"/>
	<path clip-path="url(#SVGID_2_)" fill="#FCFCFC" d="M199.7,101.8c-7.7,5.3-15.3,10.6-23,16c-0.1-0.1-0.1-0.2-0.2-0.3
		c4.2-4.2,8.4-8.5,12.8-12.9c-2.1,0.2-4.1,0.5-6,0.7c-0.1-0.4,0.2-0.5,0.4-0.7c4.3-4.7,8.6-9.3,12.9-14c0.3-0.3,0.5-0.5,0.9-0.5
		c1.8-0.2,3.6-0.4,5.4-0.6c0.8-0.1,1.6-0.2,2.7-0.3c-4.8,4.1-9.5,8-14.3,12c2.9,0.2,5.6,0.4,8.4,0.6
		C199.6,101.7,199.6,101.7,199.7,101.8"/>
	<path clip-path="url(#SVGID_2_)" fill="#B02938" d="M194.5,207.7c0.3-0.1,0.4-0.4,0.6-0.6c0.7,0.8,1.4,1.7,2,2.5
		c0.3,0.4,0.6,0.5,1,0.3c-2.1,3.3-4.6,6.1-7.5,8.7c-3.9,3.6-8.3,6.4-13.2,8.4c-3.6,1.5-7.4,2.5-11.3,3c-2.3,0.3-4.6,0.5-6.9,0.4
		c0.1-0.2,0.3-0.3,0.5-0.3c1.8,0.2,3.5-0.4,5.1-0.7c1.5-0.3,3-0.7,4.4-1.2c1.8-0.6,3.6-1.2,5.3-2.1c2.1-1,4.2-2,6-3.4
		c0.3-0.2,0.6-0.4,0.9-0.6c0.7-0.5,1.6-0.9,1-2c0-0.1,0-0.3,0-0.4c0.1,0,0.1,0,0.1,0.1c0.1,1.1,0.2,1.1,1.1,0.5
		c2.4-1.6,4.3-3.7,6.2-5.9c0.9-1,1.8-2,2.5-3.2c0.2-0.3,0.4-0.6,0.5-1c0.6,0.1,1.2-0.1,1.7-0.4c0.3-0.1,0.6-0.1,0.8,0.2
		c0.2,0.3,0,0.5-0.2,0.8c-0.3,0.3-0.6,0.4-0.9,0.5c-0.3,0.1-0.3,0.3-0.3,0.5c0.1,0.3,0.3,0.4,0.5,0.3c0.7-0.2,1.3-0.6,1.6-1.2
		c0.3-0.5,0.2-1.1-0.2-1.5c-0.4-0.5-0.9-0.6-1.5-0.4c-0.3,0.1-0.5,0.2-0.8,0.3"/>
	<path clip-path="url(#SVGID_2_)" fill="#4D4D4D" d="M138.5,142c-1.5,0-3.1,0-4.6,0c-5.6,0-11.2,0-16.7,0c-1.2,0-2.4,0-3.6,0
		c-1.2,0-1.2,0-1.4,1.1c0-0.5-0.1-1.1,0.2-1.6c0.2,0.3,0.5,0.2,0.8,0.2c6.7,0,13.4,0,20,0c0.6,0,0.8-0.2,0.9-0.8
		c0.2-3.8,0.4-7.6,0.9-11.4c0.2-1.3,0.2-2.7,0.2-4c0-0.4,0-0.7-0.6-0.7c-7,0-14,0-21,0c0.1-0.5,0.6-0.3,0.8-0.3c7.6,0,15.2,0,22.8,0
		c0.7,0,1.3,0,2,0c0.6,0,0.8,0.2,0.7,0.8c-0.4,2.2-0.4,4.5-0.6,6.8c-0.3,2.9-0.4,5.8-0.6,8.7C138.6,141.3,138.7,141.7,138.5,142"/>
	<path clip-path="url(#SVGID_2_)" fill="#4D4D4D" d="M202.3,142c-1.5,0-3.1,0-4.6,0c-7.2,0-14.4,0-21.6,0c-0.2-0.3-0.2-0.6-0.1-1
		c0.2,0.7,0.8,0.7,1.5,0.7c6.4,0,12.9,0,19.3,0c0.7,0,0.9-0.1,0.8-0.8c-0.2-3.3-0.6-6.5-0.9-9.8c-0.2-1.8-0.4-3.7-0.5-5.5
		c0-0.4-0.1-0.8-0.6-0.8c-7,0-14,0-21.1,0c0.2-0.5,0.6-0.3,0.9-0.3c7.6,0,15.1,0,22.7,0c0.7,0,1.3,0,2,0c0.5,0,0.7,0.2,0.8,0.7
		c0.4,4.6,0.9,9.2,1.3,13.8C202.2,140.1,202.2,141.1,202.3,142"/>
	<path clip-path="url(#SVGID_2_)" fill="#D62633" d="M130.4,219.7c0.1,0.2-0.2,0.6,0.3,0.6c0.5,0,0.4-0.3,0.4-0.6
		c0-0.5,0.3-0.6,0.7-0.5c0.2,0,0.4,0,0.4-0.3c0-0.3-0.1-0.4-0.4-0.4C130.9,218.4,130.4,218.8,130.4,219.7 M133.4,221.1
		c0-0.3,0.1-0.6-0.3-0.6c-0.4,0-0.4,0.3-0.4,0.5c0,0.5-0.2,0.6-0.7,0.6c-0.3,0-0.4,0.1-0.4,0.4c0,0.3,0.2,0.4,0.5,0.4
		C132.9,222.5,133.4,222,133.4,221.1 M128.3,221.7c0.5,0,0.5-0.4,0.5-0.7c0-1,0-2.1,0-3.1c0-0.6,0.2-0.9,0.9-0.8
		c1,0.1,2.1,0.2,3.1,0.2c0.4,0,0.7,0,1.1,0c1.1,0.1,1.2,0.1,1.2,1.2c0,1.3,0,2.7,0,4c0,1.3-0.3,1.5-1.6,1.3c-0.7-0.1-1.3-0.2-2,0
		C130.4,223.2,129.3,222.5,128.3,221.7"/>
	<path clip-path="url(#SVGID_2_)" fill="#B02938" d="M202.1,202.6c0-0.1-0.1-0.3-0.1-0.3c-1.1,0-0.8-1.2-1.3-1.7
		c-0.3-0.3,0-0.7,0.1-1c0.2,0,0.3,0.2,0.4,0.3c0.6,0.7,1.1,0.6,1.6-0.2c0.2-0.3,0.1-0.4-0.1-0.6c-0.4-0.4-0.3-0.8,0-1.3
		c0.2,0.2,0.5,0.3,0.7,0.5"/>
	<path clip-path="url(#SVGID_2_)" fill="#B02938" d="M193.8,204.9c0.4-0.3,0.5,0,0.7,0.2c0.8,0.9,0.8,0.9,1.7,0.1
		c1-0.3,1.6,0,2.2,0.8c0.4,0.5,0.7,1.1,1.3,1.4c0.1,0.2,0.2,0.4,0.3,0.6"/>
	<path clip-path="url(#SVGID_2_)" fill="#B02938" d="M199.1,208.4c-0.3-0.9-1.1-1.6-1.7-2.3c-0.4-0.4-0.8-0.2-1.2,0.1
		c-0.3,0.2-0.4,0.5-0.1,0.8c0.7,0.9,1.3,1.9,2.2,2.6c-0.1,0.1-0.1,0.2-0.2,0.2c-0.4,0.2-0.7,0.1-1-0.3c-0.6-0.9-1.3-1.7-2-2.5"/>
	<path clip-path="url(#SVGID_2_)" fill="#FFFFFF" d="M156.8,101.6c0.6,0.1,1.2,0.1,1.8,0c-0.1,1.7-1,3.2-1.5,4.9
		c-0.5,1.6-1,3.3-1.5,4.9c-0.4-0.2-0.3-0.5-0.3-0.7c0.4-2.4,0.7-4.9,1.1-7.3C156.6,102.8,156.4,102.2,156.8,101.6"/>
	<path clip-path="url(#SVGID_2_)" fill="#B02938" d="M201.2,204.5c-0.2-0.6-0.7-0.9-1-1.4c-0.2-0.2-0.7-0.5-0.2-0.9
		c0.5-0.4,0.6,0.2,0.8,0.4c0.3,0.2,0.4,0.6,0.8,0.8"/>
	<path clip-path="url(#SVGID_2_)" fill="#B02938" d="M199.9,206.9c-0.6-0.8-1.2-1.6-1.9-2.4c-0.1-0.2-0.4-0.3-0.1-0.6
		c0.3-0.2,0.5-0.2,0.7,0.1c0.6,0.7,1,1.5,1.7,2"/>
	<path clip-path="url(#SVGID_2_)" fill="#D62633" d="M178.7,176.6c0.3,0.2,0.5,0.5,1,0.5c-0.3-0.6-0.6-1-1.1-1.3
		c-0.1-0.2-0.1-0.4,0-0.6c0.5,0.2,0.7,0.7,1.1,1c0.2,0.1,0.2,0.6,0.6,0.3l0,0c-0.3,0.4,0.1,0.5,0.3,0.8c0.1,0.2,0.4,0.3,0.1,0.6
		c-0.2,0.2-0.4,0.1-0.6,0c0,0-0.1-0.1-0.1-0.1c-0.3-0.1-0.6-0.6-0.9-0.2c-0.2,0.3,0.1,0.6,0.3,0.9c0.2,0.2,0.3,0.3-0.1,0.5
		c-0.5,0.2,0,0.8-0.2,1.3c0,0-0.1,0-0.1,0"/>
	<path clip-path="url(#SVGID_2_)" fill="#B02938" d="M197.8,210.2c-0.8-0.8-2-2-2.8-2.9c-0.2-0.3,0.3-1.3,0.6-1.5
		c0.4-0.3,0.8-0.5,1.2-0.1c0.7,0.7,2.5,0.6,2.9,1.6C199.4,207.7,198.1,209.8,197.8,210.2"/>
	<path clip-path="url(#SVGID_2_)" fill="#8FCCCC" d="M137.8,117.6c0.1-0.1,0.3-0.1,0.4-0.2c0.5,0.3,0.7,0.9,0.9,1.4
		C138.5,118.5,138,118.2,137.8,117.6"/>
	<path clip-path="url(#SVGID_2_)" fill="#D62633" d="M178.7,175.8c0.5,0.3,0.8,0.7,1.1,1.3c-0.5,0-0.8-0.3-1-0.5
		C178.7,176.3,178.7,176.1,178.7,175.8"/>
	<path clip-path="url(#SVGID_2_)" fill="#8FCCCC" d="M113.5,126.1c0.1,0.5,0.2,1.1-0.2,1.6C113.3,127.1,113.2,126.6,113.5,126.1"/>
	<path clip-path="url(#SVGID_2_)" fill="#8FCCCC" d="M157,99.9c0,0.4,0.1,0.7-0.2,1C156.7,100.5,156.6,100.1,157,99.9"/>
	<path clip-path="url(#SVGID_2_)" fill="#8FCCCC" d="M138,117.2c-0.2,0-0.3-0.2-0.2-0.3C137.9,116.9,138,117,138,117.2"/>
	<path clip-path="url(#SVGID_2_)" fill="#8FCCCC" d="M158.7,101.3c-0.1-0.2,0-0.3,0.2-0.4C158.9,101.1,158.8,101.3,158.7,101.3"/>
	<path clip-path="url(#SVGID_2_)" fill="#8FCCCC" d="M137.5,116.6c-0.2-0.1-0.2-0.2-0.2-0.4C137.4,116.3,137.6,116.3,137.5,116.6"/>
	<path clip-path="url(#SVGID_2_)" fill="#B02938" d="M156.7,208.8c-0.1,0-0.2,0-0.3,0C156.6,208.7,156.7,208.7,156.7,208.8"/>
	<path clip-path="url(#SVGID_2_)" fill="#D62633" d="M119.8,182.2c0,0.6,0,1.1,0,1.6c-0.1,0.7,0.2,1,0.9,1.1c0.7,0.1,1.3,0.3,2,0.4
		c-0.3,0.6-0.8,0.7-1.3,0.5c-0.1,0-0.3-0.1-0.4-0.1c-0.4,0-0.9-0.4-1.1,0c-0.2,0.4,0.3,0.7,0.5,1c0.2,0.2,0.3,0.4,0,0.7
		c-0.3,0.2-0.4,0.2-0.6-0.1c-1.1-1.3-2.2-2.7-3.3-4c-0.2-0.3-0.3-0.5,0-0.7c0.3-0.3,0.5,0,0.6,0.2c0.5,0.6,0.9,1.1,1.4,1.7
		c0.1,0.1,0.2,0.3,0.4,0.2c0.2-0.1,0.1-0.3,0.1-0.4c0-0.3,0-0.7,0-1C119,182.8,119.3,182.4,119.8,182.2"/>
	<path clip-path="url(#SVGID_2_)" fill="#D62633" d="M186,172.4c0-0.1-0.1-0.3-0.2-0.3c-0.2,0-0.4,0.2-0.4,0.4
		c0,0.2,0.1,0.3,0.2,0.3C185.8,172.8,186,172.6,186,172.4 M184.9,172.1c-0.4,0.1-0.6,0-0.5-0.4c0.2-0.6,0.9-0.8,1.4-0.4
		c0.1,0.1,0.2,0.2,0.3,0.3c0.2,0.3,0.7,0.7,0.5,0.8c-0.4,0.3-0.6,0.9-1.3,0.9c-0.2,0-0.6-0.2-0.5,0.3c0,0.2,0.2,0.3,0,0.5
		c-0.2,0.1-0.3-0.1-0.5-0.2c-0.1-0.1-0.3-0.3-0.4-0.4c-0.1-0.2-0.2-0.4-0.4-0.4c0-0.1,0-0.2-0.1-0.1c0,0,0.1,0,0.1,0.1
		c-0.1,0.2,0,0.3,0.1,0.4c0.1,0.3,0.2,0.5,0.3,0.8c0,0.2,0.2,0.4,0,0.6c-0.2,0.2-0.4,0-0.6-0.1c-0.1-0.1-0.3-0.1-0.4-0.2
		c-0.1,0-0.2-0.1-0.2-0.1c-0.1,0.1,0,0.2,0,0.3c0,0.3,0.6,0.5,0.3,0.8c-0.4,0.3-0.6-0.2-0.8-0.5c-0.4-0.4-0.7-0.9-1.1-1.3
		c-0.1-0.2-0.3-0.3-0.1-0.5c0.2-0.2,0.4-0.2,0.6,0c0.4,0.2,0.7,0.6,1.2,0.7c0.1,0.1,0.2,0.1,0.3,0c0,0,0-0.1,0-0.2
		c0-0.5-0.3-0.8-0.5-1.2c-0.1-0.3-0.2-0.5,0.1-0.7c0.3-0.2,0.5,0.1,0.6,0.3c0.3,0.3,0.5,0.6,0.8,0.9c0.1,0.2,0.3,0.4,0.5,0.2
		c0.2-0.1,0-0.3,0-0.5C184.9,172.6,185,172.4,184.9,172.1c0.3,0,0.5-0.2,0.5-0.5c0-0.1-0.1-0.2-0.2-0.1
		C184.8,171.6,184.8,171.8,184.9,172.1"/>
	<path clip-path="url(#SVGID_2_)" fill="#B02938" d="M193.9,209.3c0.3-0.1,0.5-0.2,0.8-0.3c0.6-0.2,1.1-0.1,1.5,0.4
		c0.4,0.5,0.5,1,0.2,1.5c-0.4,0.6-0.9,1-1.6,1.2c-0.3,0.1-0.4,0-0.5-0.3c-0.1-0.3,0-0.4,0.3-0.5c0.3-0.1,0.7-0.3,0.9-0.5
		c0.2-0.2,0.4-0.4,0.2-0.8c-0.2-0.3-0.5-0.3-0.8-0.2c-0.6,0.2-1.1,0.5-1.7,0.4"/>
	<path clip-path="url(#SVGID_2_)" fill="#D62633" d="M116.5,185.2c0.2,0.1,0.7,0,0.7,0.4c0,0.3-0.2,0.5-0.7,0.5
		c-0.9,0-1.3,0.7-0.8,1.5c0.2,0.3,0.4,0.5,0.6,0.8c0.2,0.3,0.5,0.5,0.9,0.4c0.4-0.1,0.7-0.4,0.8-0.8c0-0.5,0.3-0.7,0.6-0.6
		c0.4,0.1,0.2,0.5,0.2,0.8c-0.2,0.8-0.8,1.3-1.5,1.5c-0.7,0.2-1.2-0.2-1.6-0.8c-0.2-0.3-0.5-0.6-0.7-0.9c-0.4-0.5-0.6-1.1-0.3-1.7
		C115.1,185.7,115.7,185.3,116.5,185.2"/>
	<path clip-path="url(#SVGID_2_)" fill="#D62633" d="M188.7,168.4c-0.1,0-0.2,0.1-0.2,0.2c0,0.1,0,0.2,0.1,0.2c0.1,0,0.2,0,0.3-0.2
		C188.9,168.5,188.8,168.5,188.7,168.4 M187.6,171.6c-0.1,0.1-0.1,0.2-0.1,0.2c-0.1,0.1-0.2,0.1-0.3-0.1c-0.4-0.4-0.8-0.8-1.2-1.3
		c-0.2-0.2,0-0.3,0.2-0.5c0.3-0.3,1.2-0.5,0.4-1.2c-0.1-0.1-0.1-0.2,0.1-0.3c0.1-0.1,0.3,0,0.3,0.1c0.2,0.4,0.6,0.6,0.8,0.9
		c0.1,0.2,0.3,0.3,0.5,0.1c0.1-0.2,0.2-0.4,0-0.5c-0.6-0.3-0.3-0.6-0.1-0.9c0.3-0.4,0.7-0.4,1.1-0.1c0.3,0.3,0.6,0.6,0.9,1
		c0.2,0.2-0.5,1.1-1,1.1c-0.3,0-0.8-0.2-0.6,0.5c0.1,0.3-0.3,0.3-0.4,0.1c-0.2-0.2-0.4-0.4-0.6-0.6c-0.2-0.2-0.4-0.5-0.7-0.2
		c-0.3,0.3-0.2,0.6,0,0.8C187.1,171.1,187.3,171.3,187.6,171.6"/>
	<path clip-path="url(#SVGID_2_)" fill="#D62633" d="M111.3,189.5c0-0.7,0.5-1,1-1.4c0.2-0.1,0.3,0.1,0.4,0.2c0.2,0.2,0.2,0.4,0,0.5
		c-0.7,0.4-0.6,0.9-0.1,1.4c0.2,0.2,0.1,0.4-0.1,0.5c-0.1,0.1-0.3,0.3-0.5,0.1C111.7,190.6,111.3,190.2,111.3,189.5"/>
	<path clip-path="url(#SVGID_2_)" fill="#D62633" d="M115.8,190.7c0,0.5-0.5,0.9-1,1.2c-0.2,0.2-0.4-0.1-0.5-0.3
		c-0.1-0.2-0.2-0.3,0-0.5c0.7-0.4,0.6-0.9,0.1-1.4c-0.2-0.2-0.2-0.4,0.1-0.5c0.2-0.1,0.3-0.3,0.5-0.1
		C115.4,189.5,115.8,189.9,115.8,190.7"/>
	<path clip-path="url(#SVGID_2_)" fill="#D62633" d="M180.4,176.5c0.2-0.2-0.1-0.4-0.1-0.5c-0.1-0.4,0-0.7,0.3-1
		c0.3-0.3,0.7-0.2,1-0.1c0.3,0.2,0.5,0.4,0.1,0.8c-0.2,0.2-0.5,0.3-0.5,0.6c0,0.1,0.2,0.2,0.3,0.2c0.4,0,0.5-0.4,0.6-0.6
		c0,0,0.1-0.1,0.2-0.1c0.3,0.4,0.1,0.7-0.2,0.9c-0.3,0.2-0.7,0.5-1.1,0.1C180.8,176.7,180.7,176.4,180.4,176.5L180.4,176.5z"/>
	<path clip-path="url(#SVGID_2_)" fill="#D62633" d="M183.7,173.1c0.2,0.1,0.4,0.2,0.4,0.4c-0.1,0-0.2,0-0.3,0
		C183.6,173.4,183.6,173.3,183.7,173.1L183.7,173.1z"/>
	<path clip-path="url(#SVGID_2_)" fill="#B02938" d="M200.4,205.9c0.2-0.5,0.4-1,0.8-1.4"/>
	<path clip-path="url(#SVGID_2_)" fill="#2BA3A3" d="M158.4,87c0.1-0.1,0.1-0.3,0.2-0.2c0.1,0.1,0.1,0.2,0,0.3
		C158.5,87.1,158.4,87,158.4,87"/>
	<path clip-path="url(#SVGID_2_)" fill="#D62633" d="M133.4,221.1c0,0.9-0.5,1.4-1.4,1.2c-0.2,0-0.5-0.1-0.5-0.4
		c0-0.3,0.2-0.4,0.4-0.4c0.4,0,0.7-0.1,0.7-0.6c0-0.3,0-0.5,0.4-0.5C133.5,220.5,133.4,220.8,133.4,221.1"/>
	<path clip-path="url(#SVGID_2_)" fill="#D62633" d="M130.4,219.7c0-0.9,0.5-1.3,1.4-1.2c0.3,0,0.4,0.1,0.4,0.4
		c0,0.3-0.2,0.3-0.4,0.3c-0.4,0-0.7,0.1-0.7,0.5c0,0.3,0.1,0.6-0.4,0.6C130.3,220.3,130.5,219.9,130.4,219.7"/>
	<path clip-path="url(#SVGID_2_)" fill="#D62633" d="M186,172.4c-0.1,0.2-0.2,0.4-0.4,0.4c-0.2,0-0.3-0.1-0.2-0.3
		c0-0.2,0.2-0.4,0.4-0.4C185.9,172.1,186,172.2,186,172.4"/>
	<path clip-path="url(#SVGID_2_)" fill="#D62633" d="M184.9,172.1c-0.1-0.3,0-0.5,0.3-0.6c0.1,0,0.2,0,0.2,0.1
		C185.4,172,185.2,172.1,184.9,172.1C184.9,172.2,184.9,172.1,184.9,172.1"/>
	<path clip-path="url(#SVGID_2_)" fill="#D62633" d="M182.9,174.9c-0.1-0.1-0.2-0.2,0-0.3c0,0,0.2,0,0.2,0.1
		C183.1,174.7,183,174.8,182.9,174.9"/>
	<path clip-path="url(#SVGID_2_)" fill="#D62633" d="M183.3,173.8c0,0.1,0.1,0.2,0,0.2c-0.1,0.1-0.2,0.1-0.3,0
		C183.2,173.9,183.2,173.8,183.3,173.8"/>
	<path clip-path="url(#SVGID_2_)" fill="#D62633" d="M183.7,173.1c0,0-0.1,0-0.1-0.1C183.6,172.9,183.6,173,183.7,173.1L183.7,173.1
		z"/>
	<path clip-path="url(#SVGID_2_)" fill="#D62633" d="M188.7,168.4c0.1,0,0.2,0.1,0.1,0.2c0,0.1-0.2,0.2-0.3,0.2c0,0-0.1-0.1-0.1-0.2
		C188.5,168.5,188.6,168.4,188.7,168.4"/>
</g>
</svg>
